<svg id="visual" viewBox="0 0 900 600" width="900" height="600" xmlns="http://www.w3.org/2000/svg" xmlns:xlink="http://www.w3.org/1999/xlink" version="1.1"><rect x="0" y="0" width="900" height="600" fill="#151418"></rect><defs><linearGradient id="grad1_0" x1="33.3%" y1="100%" x2="100%" y2="0%"><stop offset="20%" stop-color="#151418" stop-opacity="1"></stop><stop offset="80%" stop-color="#151418" stop-opacity="1"></stop></linearGradient></defs><defs><linearGradient id="grad2_0" x1="0%" y1="100%" x2="66.7%" y2="0%"><stop offset="20%" stop-color="#151418" stop-opacity="1"></stop><stop offset="80%" stop-color="#151418" stop-opacity="1"></stop></linearGradient></defs><g transform="translate(900, 600)"><path d="M-277 0C-282.5 -33.6 -288 -67.3 -273 -88.7C-257.9 -110.1 -222.4 -119.3 -210.3 -152.8C-198.3 -186.4 -209.8 -244.3 -190.7 -262.5C-171.7 -280.7 -122.2 -259.2 -85.3 -262.5C-48.4 -265.8 -24.2 -293.9 0 -322L0 0Z" fill="#2563eb"></path></g><g transform="translate(0, 0)"><path d="M312 0C291.2 28 270.5 56.1 259.6 84.4C248.8 112.7 247.9 141.2 240.3 174.6C232.7 207.9 218.4 246 190.7 262.5C163.1 279 122.1 273.9 88.1 271.1C54.1 268.2 27 267.6 0 267L0 0Z" fill="#2563eb"></path></g></svg>